<svg width="96.440369" height="62.328125" viewBox="0 0 96.4404 62.3281" fill="none" xmlns="http://www.w3.org/2000/svg" xmlns:xlink="http://www.w3.org/1999/xlink">
	<desc>
			Created with Pixso.
	</desc>
	<defs>
		<filter id="filter_1_1269_dd" x="0.000000" y="0.000000" width="96.440369" height="62.328125" filterUnits="userSpaceOnUse" color-interpolation-filters="sRGB">
			<feFlood flood-opacity="0" result="BackgroundImageFix"/>
			<feColorMatrix in="SourceAlpha" type="matrix" values="0 0 0 0 0 0 0 0 0 0 0 0 0 0 0 0 0 0 127 0" result="hardAlpha"/>
			<feOffset dx="0" dy="4"/>
			<feGaussianBlur stdDeviation="2.66667"/>
			<feComposite in2="hardAlpha" operator="out" k2="-1" k3="1"/>
			<feColorMatrix type="matrix" values="0 0 0 0 0 0 0 0 0 0 0 0 0 0 0 0 0 0 0.25 0"/>
			<feBlend mode="normal" in2="BackgroundImageFix" result="effect_dropShadow_1"/>
			<feBlend mode="normal" in="SourceGraphic" in2="effect_dropShadow_1" result="shape"/>
		</filter>
	</defs>
	<g filter="url(#filter_1_1269_dd)">
		<path id="06" d="M19.5 48.77Q23.01 50.32 27.2 50.32Q31.37 50.32 34.85 48.78Q36.02 48.26 37.1 47.57Q37.79 47.14 38.42 46.65Q41.85 44.01 43.92 39.6Q46.39 34.39 46.39 27.15Q46.39 19.93 43.92 14.71Q41.85 10.31 38.42 7.67Q37.79 7.17 37.1 6.75Q36.02 6.06 34.85 5.54Q31.37 4 27.2 4Q23.01 4 19.5 5.55Q18.34 6.06 17.26 6.75Q16.65 7.13 16.07 7.57Q12.57 10.23 10.45 14.71Q8 19.93 8 27.15Q8 34.39 10.45 39.6Q12.57 44.09 16.07 46.75Q16.65 47.19 17.26 47.57Q18.34 48.26 19.5 48.77ZM80.31 22.96Q77 21.46 73.01 21.46Q66.82 21.46 63.01 24.48Q62.44 24.92 61.94 25.43Q62.2 19.14 65.47 15.82Q65.5 15.79 65.53 15.76Q66.17 15.12 66.91 14.6Q69.96 12.43 74.54 12.43Q79.61 12.43 82.94 14.68L86.78 7.06Q84.47 5.59 81.17 4.79Q77.87 4 74.29 4Q67.51 4 62.36 6.81Q60.49 7.83 58.92 9.19Q56.16 11.59 54.33 15.06Q51.45 20.5 51.45 28.12Q51.45 38.81 56.76 44.57Q57.97 45.88 59.39 46.89Q64.21 50.32 71.48 50.32Q76.22 50.32 80.09 48.51Q82.73 47.26 84.61 45.29Q85.49 44.37 86.2 43.29Q86.66 42.59 87.03 41.84Q88.44 38.97 88.44 35.42Q88.44 32.12 87.15 29.44Q86.81 28.75 86.39 28.09Q85.62 26.9 84.64 25.91Q83.02 24.27 80.83 23.2Q80.57 23.07 80.31 22.96ZM30.64 40.79Q29.11 41.56 27.2 41.56Q25.37 41.56 23.89 40.84Q22.09 39.97 20.81 38.04Q18.48 34.51 18.48 27.15Q18.48 19.79 20.81 16.28Q22.09 14.35 23.89 13.48Q25.37 12.76 27.2 12.76Q29.11 12.76 30.64 13.53Q32.38 14.4 33.62 16.28Q35.96 19.79 35.96 27.15Q35.96 34.51 33.62 38.04Q32.38 39.92 30.64 40.79ZM75.74 41.23Q73.79 42.59 70.9 42.59Q67.37 42.59 65.28 40.85Q65.21 40.79 65.14 40.73Q64.22 39.92 63.7 38.9Q63.03 37.59 63.03 35.93Q63.03 34.35 63.65 33.07Q64.19 31.96 65.2 31.09Q65.61 30.73 66.06 30.45Q68.02 29.2 70.78 29.2Q73.91 29.2 75.91 30.7Q76.12 30.86 76.31 31.03Q77.03 31.66 77.5 32.44Q78.39 33.92 78.39 35.93Q78.39 37.94 77.5 39.4Q77.03 40.17 76.31 40.79Q76.04 41.03 75.74 41.23Z" fill="#FFFFFF" fill-opacity="1.000000" fill-rule="evenodd"/>
	</g>
</svg>
