<svg width="18.000000" height="10.631836" viewBox="0 0 18 10.6318" fill="none" xmlns="http://www.w3.org/2000/svg" xmlns:xlink="http://www.w3.org/1999/xlink">
	<desc>
			Created with Pixso.
	</desc>
	<defs/>
	<path id="Vector" d="M0.28 9.74L0.87 10.33C1.06 10.52 1.3 10.62 1.57 10.62C1.83 10.62 2.08 10.52 2.27 10.33L8.99 3.61L15.72 10.34C15.91 10.52 16.16 10.63 16.42 10.63C16.68 10.63 16.93 10.52 17.12 10.34L17.71 9.75C18.09 9.37 18.09 8.74 17.71 8.36L9.69 0.31C9.5 0.13 9.26 0 8.99 0L8.99 0C8.72 0 8.48 0.13 8.29 0.31L0.28 8.34C0.1 8.52 0 8.77 0 9.04C0 9.3 0.1 9.55 0.28 9.74Z" fill="#6B5AF9" fill-opacity="1.000000" fill-rule="nonzero"/>
</svg>
