<svg width="10.658630" height="9.922852" viewBox="0 0 10.6586 9.92285" fill="none" xmlns="http://www.w3.org/2000/svg" xmlns:xlink="http://www.w3.org/1999/xlink">
	<desc>
			Created with Pixso.
	</desc>
	<defs/>
	<path id="Vector" d="M10.46 8.59C10.25 9.2 9.38 9.71 8.7 9.86C8.23 9.96 7.61 10.04 5.54 9.18C2.9 8.08 1.2 5.4 1.06 5.22C0.94 5.05 0 3.8 0 2.51C0 1.22 0.65 0.59 0.92 0.32C1.13 0.1 1.49 0 1.84 0C1.95 0 2.05 0 2.14 0.01C2.4 0.02 2.53 0.03 2.71 0.45C2.93 0.97 3.45 2.26 3.52 2.4C3.58 2.53 3.65 2.71 3.56 2.88C3.47 3.06 3.4 3.14 3.26 3.3C3.13 3.45 3.01 3.57 2.87 3.73C2.75 3.87 2.61 4.03 2.77 4.29C2.92 4.55 3.45 5.41 4.23 6.11C5.23 7 6.05 7.29 6.34 7.41C6.55 7.5 6.81 7.48 6.97 7.31C7.17 7.09 7.42 6.73 7.68 6.38C7.86 6.12 8.08 6.09 8.32 6.18C8.56 6.26 9.85 6.9 10.11 7.03C10.38 7.16 10.55 7.23 10.62 7.34C10.68 7.45 10.68 7.97 10.46 8.59Z" fill="#FAFAFA" fill-opacity="1.000000" fill-rule="nonzero"/>
</svg>
