<svg width="177.612915" height="55.000000" viewBox="0 0 177.613 55" fill="none" xmlns="http://www.w3.org/2000/svg" xmlns:xlink="http://www.w3.org/1999/xlink">
	<desc>
			Created with Pixso.
	</desc>
	<defs/>
	<path id="Vector" d="M15.14 36L15.12 27.09L10.8 34.34L8.68 34.34L4.36 27.28L4.36 36L0 36L0 19.2L3.91 19.2L9.81 28.89L15.57 19.2L19.48 19.2L19.53 36L15.14 36ZM81.36 32.32L81.36 36L67.87 36L67.87 19.2L81.05 19.2L81.05 22.87L72.58 22.87L72.58 25.7L80.04 25.7L80.04 29.25L72.58 29.25L72.58 32.32L81.36 32.32ZM101.66 19.2L101.66 36L97.75 36L90.34 27.04L90.34 36L85.68 36L85.68 19.2L89.59 19.2L97.01 28.15L97.01 19.2L101.66 19.2ZM122.68 19.2L122.68 36L118.77 36L111.35 27.04L111.35 36L106.7 36L106.7 19.2L110.61 19.2L118.02 28.15L118.02 19.2L122.68 19.2ZM127.71 19.2L132.46 19.2L132.46 36L127.71 36L127.71 19.2ZM145.28 36.33Q141.91 36.33 139.89 34.69Q139.66 34.5 139.45 34.29Q139.22 34.07 139.02 33.82Q137.38 31.84 137.38 28.51L137.38 19.2L142.13 19.2L142.13 28.36C142.13 31.05 143.2 32.4 145.33 32.4C147.44 32.4 148.49 31.05 148.49 28.36L148.49 19.2L153.17 19.2L153.17 28.51Q153.17 31.8 151.56 33.77Q151.34 34.04 151.09 34.29C149.71 35.65 147.77 36.33 145.28 36.33ZM173.24 36L173.19 27.09L168.87 34.34L166.76 34.34L162.46 27.33L162.46 36L158.07 36L158.07 19.2L161.98 19.2L167.89 28.89L173.65 19.2L177.56 19.2L177.61 36L173.24 36Z" fill="#2A2367" fill-opacity="1.000000" fill-rule="evenodd"/>
	<rect id="Rectangle 2" x="26.199951" y="19.000000" width="7.000000" height="17.000000" fill="#6B5AF9" fill-opacity="1.000000"/>
	<rect id="Rectangle 3" x="40.199951" y="7.000000" width="7.000000" height="41.000000" fill="#6B5AF9" fill-opacity="1.000000"/>
	<rect id="Rectangle 4" x="54.199951" width="7.000000" height="55.000000" fill="#6B5AF9" fill-opacity="1.000000"/>
</svg>
