<svg width="19.978760" height="20.020996" viewBox="0 0 19.9788 20.021" fill="none" xmlns="http://www.w3.org/2000/svg" xmlns:xlink="http://www.w3.org/1999/xlink">
	<desc>
			Created with Pixso.
	</desc>
	<defs/>
	<path id="Vector" d="M19.45 14.69L16.66 11.89C15.66 10.9 13.96 11.3 13.56 12.59C13.26 13.49 12.27 13.99 11.37 13.79C9.37 13.29 6.68 10.7 6.18 8.6C5.88 7.7 6.48 6.71 7.38 6.41C8.67 6.01 9.07 4.31 8.07 3.31L5.28 0.52C4.48 -0.18 3.28 -0.18 2.59 0.52L0.69 2.41C-1.21 4.41 0.89 9.7 5.58 14.39C10.27 19.08 15.56 21.27 17.55 19.28L19.45 17.38C20.15 16.58 20.15 15.39 19.45 14.69Z" fill="#FFFFFF" fill-opacity="1.000000" fill-rule="nonzero"/>
</svg>
